<mxfile host="app.diagrams.net" modified="2022-01-17T22:27:53.840Z" agent="5.0 (X11; Linux x86_64) AppleWebKit/537.36 (KHTML, like Gecko) Chrome/96.0.4664.110 Safari/537.36" etag="05BzkFxkgZhTs2eY1dwg" version="16.2.7" type="github">
  <diagram id="loPkor1TOX7S_Lfh7Cxc" name="Page-1">
    <mxGraphModel dx="565" dy="842" grid="1" gridSize="10" guides="1" tooltips="1" connect="1" arrows="1" fold="1" page="1" pageScale="1" pageWidth="827" pageHeight="1169" math="0" shadow="0">
      <root>
        <mxCell id="0" />
        <mxCell id="1" parent="0" />
        <mxCell id="Zy0P_rY6tCN2OVi4sr-7-1" value="" style="shape=image;verticalLabelPosition=bottom;labelBackgroundColor=default;verticalAlign=top;aspect=fixed;imageAspect=0;image=https://editor.analyticsvidhya.com/uploads/62720sr2.jpeg;" vertex="1" parent="1">
          <mxGeometry x="270" y="40" width="664" height="380.52" as="geometry" />
        </mxCell>
        <mxCell id="Zy0P_rY6tCN2OVi4sr-7-2" value="&lt;b&gt;&lt;font style=&quot;font-size: 14px&quot;&gt;Break the Signal into Overlapping Frames&lt;/font&gt;&lt;/b&gt;" style="text;html=1;strokeColor=none;fillColor=none;align=center;verticalAlign=middle;whiteSpace=wrap;rounded=0;" vertex="1" parent="1">
          <mxGeometry x="550" y="180" width="190" height="30" as="geometry" />
        </mxCell>
      </root>
    </mxGraphModel>
  </diagram>
</mxfile>
